<svg xmlns="http://www.w3.org/2000/svg" xmlns:xlink="http://www.w3.org/1999/xlink" width="100" zoomAndPan="magnify" viewBox="0 0 75.119995 83.04" height="100" preserveAspectRatio="xMidYMid meet" version="1.0"><defs><clipPath id="9873d9d178"><path d="M 7.414062 3.941406 L 66.71875 3.941406 L 66.71875 69.917969 L 7.414062 69.917969 Z M 7.414062 3.941406 " clip-rule="nonzero"/></clipPath></defs><g clip-path="url(#9873d9d178)"><path fill="#000000" d="M 61.457031 43.75 L 61.457031 30.109375 C 64.460938 29.484375 66.699219 26.835938 66.699219 23.707031 C 66.699219 20.085938 63.761719 17.164062 60.128906 17.164062 C 58.171875 17.164062 56.496094 18 55.238281 19.320312 L 43.285156 12.5 C 43.496094 11.875 43.636719 11.179688 43.636719 10.484375 C 43.636719 6.863281 40.699219 3.941406 37.066406 3.941406 C 33.429688 3.941406 30.496094 6.863281 30.496094 10.484375 C 30.496094 11.179688 30.636719 11.875 30.84375 12.5 L 18.894531 19.320312 C 17.707031 18 15.960938 17.164062 14.003906 17.164062 C 10.367188 17.164062 7.433594 20.085938 7.433594 23.707031 C 7.433594 26.835938 9.667969 29.484375 12.675781 30.109375 L 12.675781 43.75 C 9.667969 44.375 7.433594 47.019531 7.433594 50.152344 C 7.433594 53.769531 10.367188 56.695312 14.003906 56.695312 C 15.960938 56.695312 17.636719 55.859375 18.894531 54.535156 L 30.84375 61.359375 C 30.636719 61.984375 30.496094 62.679688 30.496094 63.375 C 30.496094 66.996094 33.429688 69.917969 37.066406 69.917969 C 40.699219 69.917969 43.636719 66.996094 43.636719 63.375 C 43.636719 62.679688 43.496094 61.984375 43.285156 61.359375 L 55.238281 54.535156 C 56.425781 55.859375 58.171875 56.695312 60.128906 56.695312 C 63.761719 56.695312 66.699219 53.769531 66.699219 50.152344 C 66.699219 47.019531 64.460938 44.375 61.457031 43.75 Z M 60.128906 19.878906 C 62.226562 19.878906 63.972656 21.617188 63.972656 23.707031 C 63.972656 25.792969 62.226562 27.535156 60.128906 27.535156 C 58.03125 27.535156 56.285156 25.792969 56.285156 23.707031 C 56.285156 21.546875 57.960938 19.878906 60.128906 19.878906 Z M 37.066406 6.585938 C 39.164062 6.585938 40.910156 8.324219 40.910156 10.414062 C 40.910156 12.5 39.164062 14.242188 37.066406 14.242188 C 34.96875 14.242188 33.222656 12.5 33.222656 10.414062 C 33.222656 8.324219 34.96875 6.585938 37.066406 6.585938 Z M 10.160156 23.707031 C 10.160156 21.617188 11.90625 19.878906 14.003906 19.878906 C 16.097656 19.878906 17.847656 21.617188 17.847656 23.707031 C 17.847656 25.792969 16.097656 27.535156 14.003906 27.535156 C 11.90625 27.535156 10.160156 25.792969 10.160156 23.707031 Z M 14.003906 53.980469 C 11.90625 53.980469 10.160156 52.242188 10.160156 50.152344 C 10.160156 48.066406 11.90625 46.324219 14.003906 46.324219 C 16.097656 46.324219 17.847656 48.066406 17.847656 50.152344 C 17.847656 52.308594 16.167969 53.980469 14.003906 53.980469 Z M 37.066406 67.273438 C 34.96875 67.273438 33.222656 65.535156 33.222656 63.445312 C 33.222656 61.359375 34.96875 59.617188 37.066406 59.617188 C 39.164062 59.617188 40.910156 61.359375 40.910156 63.445312 C 40.910156 65.535156 39.164062 67.273438 37.066406 67.273438 Z M 41.957031 59.0625 C 40.769531 57.738281 39.023438 56.902344 37.066406 56.902344 C 35.109375 56.902344 33.429688 57.738281 32.171875 59.0625 L 20.292969 52.171875 C 20.503906 51.542969 20.640625 50.847656 20.640625 50.152344 C 20.640625 47.019531 18.40625 44.375 15.398438 43.75 L 15.398438 30.109375 C 18.40625 29.484375 20.640625 26.835938 20.640625 23.707031 C 20.640625 23.011719 20.503906 22.3125 20.292969 21.6875 L 32.171875 14.796875 C 33.363281 16.121094 35.109375 16.957031 37.066406 16.957031 C 39.023438 16.957031 40.699219 16.121094 41.957031 14.796875 L 53.839844 21.6875 C 53.628906 22.3125 53.488281 23.011719 53.488281 23.707031 C 53.488281 26.835938 55.726562 29.484375 58.730469 30.109375 L 58.730469 43.75 C 55.726562 44.375 53.488281 47.019531 53.488281 50.152344 C 53.488281 50.847656 53.628906 51.542969 53.839844 52.171875 Z M 60.128906 53.980469 C 58.03125 53.980469 56.285156 52.242188 56.285156 50.152344 C 56.285156 48.066406 58.03125 46.324219 60.128906 46.324219 C 62.226562 46.324219 63.972656 48.066406 63.972656 50.152344 C 63.972656 52.308594 62.226562 53.980469 60.128906 53.980469 Z M 60.128906 53.980469 " fill-opacity="1" fill-rule="nonzero"/></g><path fill="#000000" d="M 50.832031 30.039062 C 50.832031 29.484375 50.484375 28.996094 49.996094 28.785156 L 37.625 23.21875 C 37.277344 23.078125 36.855469 23.078125 36.507812 23.21875 L 24.136719 28.785156 C 23.648438 28.996094 23.296875 29.484375 23.296875 30.039062 C 23.296875 30.597656 23.648438 31.082031 24.136719 31.292969 L 29.027344 33.449219 L 24.136719 35.605469 C 23.648438 35.816406 23.296875 36.304688 23.296875 36.859375 C 23.296875 37.417969 23.648438 37.902344 24.136719 38.113281 L 29.027344 40.269531 L 24.136719 42.496094 C 23.648438 42.707031 23.296875 43.191406 23.296875 43.75 C 23.296875 44.304688 23.648438 44.792969 24.136719 45.003906 L 36.507812 50.570312 C 36.714844 50.640625 36.855469 50.710938 37.066406 50.710938 C 37.277344 50.710938 37.484375 50.640625 37.625 50.570312 L 49.996094 45.003906 C 50.484375 44.792969 50.832031 44.304688 50.832031 43.75 C 50.832031 43.191406 50.484375 42.707031 49.996094 42.496094 L 45.101562 40.269531 L 49.996094 38.113281 C 50.484375 37.902344 50.832031 37.417969 50.832031 36.859375 C 50.832031 36.304688 50.484375 35.816406 49.996094 35.605469 L 45.101562 33.449219 L 49.996094 31.292969 C 50.484375 31.082031 50.832031 30.597656 50.832031 30.039062 Z M 46.082031 43.820312 L 37.066406 47.855469 L 28.050781 43.820312 L 32.382812 41.871094 L 36.507812 43.75 C 36.714844 43.820312 36.855469 43.890625 37.066406 43.890625 C 37.277344 43.890625 37.484375 43.820312 37.625 43.75 L 41.75 41.871094 Z M 46.082031 36.929688 L 37.066406 40.964844 L 28.050781 36.929688 L 32.382812 34.980469 L 36.507812 36.859375 C 36.714844 36.929688 36.855469 37 37.066406 37 C 37.277344 37 37.484375 36.929688 37.625 36.859375 L 41.75 34.980469 Z M 37.066406 34.074219 L 28.050781 30.039062 L 37.066406 26.003906 L 46.082031 30.039062 Z M 37.066406 34.074219 " fill-opacity="1" fill-rule="nonzero"/></svg>