<svg xmlns="http://www.w3.org/2000/svg" xmlns:xlink="http://www.w3.org/1999/xlink" width="100" zoomAndPan="magnify" viewBox="0 0 75.119995 83.04" height="100" preserveAspectRatio="xMidYMid meet" version="1.0"><defs><clipPath id="e15562b1c1"><path d="M 10.816406 3 L 63.449219 3 L 63.449219 71.144531 L 10.816406 71.144531 Z M 10.816406 3 " clip-rule="nonzero"/></clipPath></defs><g clip-path="url(#e15562b1c1)"><path fill="#000000" d="M 63.300781 30.1875 L 63.3125 30.1875 C 63.3125 25.949219 63.304688 21.714844 63.3125 17.476562 C 63.378906 16.761719 63.261719 16.074219 62.964844 15.421875 C 62.664062 14.765625 62.222656 14.226562 61.636719 13.808594 C 60.851562 13.3125 60 12.976562 59.082031 12.804688 C 55.597656 12.152344 52.230469 11.117188 48.980469 9.699219 C 45.734375 8.285156 42.683594 6.523438 39.839844 4.414062 C 37.953125 2.992188 36.230469 3.058594 34.28125 4.398438 C 32.691406 5.496094 31.105469 6.605469 29.433594 7.578125 C 24.8125 10.160156 19.894531 11.921875 14.679688 12.863281 C 12.046875 13.390625 10.828125 14.894531 10.828125 17.550781 C 10.820312 25.265625 10.820312 32.988281 10.824219 40.707031 C 10.816406 42.390625 10.960938 44.0625 11.253906 45.71875 C 11.546875 47.378906 11.984375 48.996094 12.570312 50.578125 C 13.152344 52.160156 13.871094 53.675781 14.726562 55.128906 C 15.582031 56.578125 16.558594 57.945312 17.660156 59.222656 C 22.289062 64.773438 28.246094 68.382812 35.023438 70.71875 C 36.382812 71.203125 37.742188 71.203125 39.097656 70.71875 C 43.804688 69.171875 48.078125 66.835938 51.917969 63.714844 C 58.964844 57.828125 63.089844 50.46875 63.289062 41.164062 C 63.367188 37.503906 63.300781 33.84375 63.300781 30.1875 Z M 52.082031 59.527344 C 48.125 63.375 43.515625 66.132812 38.246094 67.808594 C 37.492188 68.050781 36.738281 68.058594 35.980469 67.835938 C 29.054688 65.535156 23.167969 61.714844 18.808594 55.792969 C 17.171875 53.601562 15.929688 51.207031 15.078125 48.609375 C 14.230469 46.015625 13.816406 43.351562 13.839844 40.617188 C 13.835938 37.109375 13.835938 33.601562 13.839844 30.089844 C 13.839844 25.957031 13.839844 21.820312 13.839844 17.683594 C 13.839844 16.34375 14.046875 16.050781 15.363281 15.800781 C 20.953125 14.777344 26.21875 12.867188 31.160156 10.066406 C 32.832031 9.101562 34.402344 7.964844 36.007812 6.886719 C 36.941406 6.265625 37.214844 6.222656 38.101562 6.886719 C 41.144531 9.132812 44.402344 11.007812 47.878906 12.507812 C 51.351562 14.007812 54.953125 15.101562 58.675781 15.777344 C 60.105469 16.054688 60.292969 16.3125 60.292969 17.742188 C 60.292969 25.308594 60.292969 32.878906 60.292969 40.449219 C 60.292969 47.980469 57.414062 54.277344 52.082031 59.527344 Z M 37.074219 19.941406 C 36.527344 19.941406 35.984375 19.964844 35.445312 20.019531 C 34.902344 20.074219 34.363281 20.152344 33.832031 20.257812 C 33.296875 20.363281 32.769531 20.496094 32.25 20.652344 C 31.730469 20.808594 31.21875 20.992188 30.714844 21.199219 C 30.210938 21.40625 29.71875 21.636719 29.238281 21.894531 C 28.761719 22.148438 28.292969 22.429688 27.839844 22.730469 C 27.390625 23.03125 26.953125 23.351562 26.53125 23.695312 C 26.109375 24.039062 25.707031 24.40625 25.324219 24.789062 C 24.9375 25.171875 24.574219 25.574219 24.226562 25.992188 C 23.882812 26.410156 23.558594 26.847656 23.257812 27.296875 C 22.953125 27.746094 22.675781 28.210938 22.417969 28.691406 C 22.160156 29.167969 21.929688 29.660156 21.722656 30.160156 C 21.511719 30.660156 21.328125 31.171875 21.171875 31.6875 C 21.015625 32.207031 20.882812 32.734375 20.777344 33.265625 C 20.667969 33.796875 20.589844 34.332031 20.535156 34.871094 C 20.484375 35.410156 20.457031 35.953125 20.457031 36.496094 C 20.457031 37.039062 20.484375 37.578125 20.535156 38.117188 C 20.589844 38.65625 20.667969 39.195312 20.773438 39.726562 C 20.882812 40.257812 21.011719 40.78125 21.171875 41.300781 C 21.328125 41.820312 21.511719 42.332031 21.71875 42.832031 C 21.929688 43.332031 22.160156 43.820312 22.417969 44.300781 C 22.671875 44.777344 22.953125 45.242188 23.253906 45.695312 C 23.558594 46.144531 23.882812 46.582031 24.226562 47 C 24.570312 47.417969 24.9375 47.820312 25.320312 48.203125 C 25.707031 48.585938 26.109375 48.949219 26.527344 49.292969 C 26.949219 49.640625 27.386719 49.960938 27.839844 50.261719 C 28.292969 50.5625 28.757812 50.84375 29.238281 51.097656 C 29.71875 51.355469 30.207031 51.585938 30.710938 51.792969 C 31.214844 52 31.726562 52.183594 32.246094 52.339844 C 32.765625 52.5 33.292969 52.628906 33.828125 52.734375 C 34.363281 52.839844 34.898438 52.921875 35.441406 52.972656 C 35.980469 53.027344 36.523438 53.054688 37.070312 53.054688 C 37.613281 53.054688 38.15625 53.027344 38.699219 52.976562 C 39.238281 52.921875 39.777344 52.84375 40.3125 52.738281 C 40.84375 52.628906 41.371094 52.5 41.894531 52.339844 C 42.414062 52.183594 42.925781 52 43.429688 51.792969 C 43.929688 51.585938 44.421875 51.355469 44.902344 51.101562 C 45.382812 50.84375 45.847656 50.566406 46.300781 50.265625 C 46.753906 49.964844 47.191406 49.640625 47.609375 49.296875 C 48.03125 48.953125 48.433594 48.589844 48.820312 48.207031 C 49.203125 47.824219 49.570312 47.421875 49.914062 47.003906 C 50.257812 46.582031 50.582031 46.148438 50.886719 45.695312 C 51.1875 45.246094 51.46875 44.78125 51.722656 44.304688 C 51.980469 43.824219 52.210938 43.335938 52.421875 42.835938 C 52.628906 42.332031 52.8125 41.824219 52.96875 41.304688 C 53.128906 40.785156 53.261719 40.261719 53.367188 39.730469 C 53.472656 39.195312 53.550781 38.660156 53.605469 38.121094 C 53.660156 37.582031 53.6875 37.039062 53.6875 36.5 C 53.683594 35.957031 53.65625 35.417969 53.601562 34.878906 C 53.546875 34.339844 53.464844 33.804688 53.355469 33.273438 C 53.25 32.742188 53.117188 32.21875 52.957031 31.699219 C 52.796875 31.179688 52.613281 30.671875 52.40625 30.171875 C 52.195312 29.671875 51.964844 29.183594 51.707031 28.707031 C 51.449219 28.230469 51.167969 27.765625 50.867188 27.316406 C 50.566406 26.863281 50.242188 26.429688 49.894531 26.011719 C 49.550781 25.59375 49.1875 25.191406 48.800781 24.808594 C 48.417969 24.425781 48.015625 24.0625 47.59375 23.71875 C 47.175781 23.375 46.738281 23.050781 46.289062 22.75 C 45.835938 22.449219 45.371094 22.171875 44.890625 21.914062 C 44.414062 21.660156 43.921875 21.425781 43.421875 21.21875 C 42.917969 21.007812 42.410156 20.824219 41.886719 20.667969 C 41.367188 20.507812 40.84375 20.375 40.308594 20.269531 C 39.777344 20.160156 39.238281 20.082031 38.699219 20.023438 C 38.160156 19.96875 37.617188 19.941406 37.074219 19.941406 Z M 37.03125 50.042969 C 36.136719 50.042969 35.253906 49.953125 34.378906 49.777344 C 33.5 49.597656 32.652344 49.339844 31.828125 48.996094 C 31.003906 48.652344 30.222656 48.234375 29.480469 47.734375 C 28.738281 47.238281 28.054688 46.675781 27.425781 46.042969 C 26.796875 45.414062 26.234375 44.726562 25.738281 43.984375 C 25.246094 43.242188 24.828125 42.460938 24.492188 41.636719 C 24.152344 40.8125 23.898438 39.964844 23.726562 39.089844 C 23.554688 38.21875 23.46875 37.335938 23.472656 36.445312 C 23.476562 35.554688 23.566406 34.675781 23.742188 33.804688 C 23.921875 32.929688 24.183594 32.085938 24.527344 31.261719 C 24.871094 30.441406 25.292969 29.664062 25.792969 28.925781 C 26.289062 28.1875 26.855469 27.503906 27.492188 26.875 C 28.125 26.25 28.8125 25.691406 29.558594 25.199219 C 30.300781 24.707031 31.085938 24.292969 31.914062 23.953125 C 32.742188 23.617188 33.59375 23.363281 34.46875 23.191406 C 35.34375 23.019531 36.230469 22.9375 37.121094 22.941406 C 38.015625 22.945312 38.898438 23.035156 39.777344 23.210938 C 40.652344 23.386719 41.5 23.648438 42.324219 23.992188 C 43.148438 24.335938 43.929688 24.757812 44.671875 25.253906 C 45.410156 25.75 46.097656 26.316406 46.726562 26.949219 C 47.355469 27.578125 47.914062 28.265625 48.410156 29.007812 C 48.902344 29.75 49.316406 30.53125 49.65625 31.355469 C 49.996094 32.179688 50.25 33.027344 50.421875 33.902344 C 50.589844 34.777344 50.675781 35.65625 50.671875 36.546875 C 50.664062 37.4375 50.570312 38.316406 50.390625 39.1875 C 50.210938 40.054688 49.949219 40.902344 49.605469 41.71875 C 49.257812 42.539062 48.835938 43.316406 48.339844 44.054688 C 47.839844 44.789062 47.273438 45.472656 46.640625 46.097656 C 46.007812 46.722656 45.320312 47.28125 44.578125 47.773438 C 43.835938 48.265625 43.050781 48.679688 42.226562 49.019531 C 41.402344 49.355469 40.554688 49.613281 39.679688 49.785156 C 38.804688 49.957031 37.921875 50.042969 37.03125 50.042969 Z M 44.410156 30.242188 C 44.152344 30 43.855469 29.8125 43.527344 29.675781 C 43.199219 29.542969 42.855469 29.46875 42.5 29.460938 C 42.144531 29.449219 41.796875 29.503906 41.460938 29.621094 C 41.125 29.738281 40.820312 29.910156 40.550781 30.136719 C 39.800781 30.769531 39.117188 31.472656 38.425781 32.164062 C 37.527344 33.066406 36.652344 33.992188 35.65625 35.023438 C 34.960938 34.28125 34.40625 33.632812 33.796875 33.046875 C 33.535156 32.777344 33.230469 32.566406 32.886719 32.414062 C 32.542969 32.265625 32.183594 32.183594 31.808594 32.175781 C 31.429688 32.167969 31.066406 32.230469 30.71875 32.363281 C 30.367188 32.5 30.054688 32.695312 29.78125 32.953125 C 29.105469 33.550781 28.464844 34.1875 27.855469 34.855469 C 27.609375 35.125 27.421875 35.425781 27.289062 35.761719 C 27.15625 36.101562 27.09375 36.453125 27.09375 36.8125 C 27.097656 37.175781 27.167969 37.527344 27.304688 37.863281 C 27.441406 38.199219 27.632812 38.496094 27.882812 38.761719 C 29.765625 40.707031 31.6875 42.621094 33.640625 44.496094 C 33.921875 44.777344 34.246094 44.992188 34.613281 45.140625 C 34.980469 45.285156 35.363281 45.355469 35.757812 45.351562 C 36.15625 45.34375 36.535156 45.257812 36.894531 45.097656 C 37.257812 44.9375 37.574219 44.710938 37.84375 44.421875 C 38.867188 43.425781 39.871094 42.40625 40.882812 41.394531 C 42.589844 39.695312 44.308594 38.007812 45.996094 36.289062 C 46.160156 36.152344 46.304688 36 46.433594 35.832031 C 46.566406 35.664062 46.675781 35.484375 46.765625 35.292969 C 46.855469 35.097656 46.925781 34.898438 46.972656 34.691406 C 47.019531 34.484375 47.042969 34.277344 47.042969 34.0625 C 47.042969 33.851562 47.023438 33.640625 46.976562 33.433594 C 46.933594 33.226562 46.867188 33.027344 46.777344 32.835938 C 46.6875 32.640625 46.578125 32.460938 46.453125 32.292969 C 46.324219 32.121094 46.175781 31.96875 46.015625 31.832031 C 45.496094 31.285156 44.964844 30.75 44.410156 30.242188 Z M 35.558594 42.132812 L 30.277344 36.640625 L 31.667969 35.179688 C 32.082031 35.585938 32.46875 35.960938 32.851562 36.339844 C 33.351562 36.832031 33.84375 37.332031 34.34375 37.824219 C 35.316406 38.773438 36.089844 38.773438 37.0625 37.796875 C 38.621094 36.230469 40.167969 34.660156 41.710938 33.078125 C 41.910156 32.839844 42.089844 32.585938 42.253906 32.320312 L 43.730469 34.058594 C 41.097656 36.660156 38.355469 39.367188 35.558594 42.132812 Z M 35.558594 42.132812 " fill-opacity="1" fill-rule="nonzero"/></g></svg>