<svg xmlns="http://www.w3.org/2000/svg" xmlns:xlink="http://www.w3.org/1999/xlink" width="100" zoomAndPan="magnify" viewBox="0 0 75.119995 83.04" height="100" preserveAspectRatio="xMidYMid meet" version="1.0"><defs><clipPath id="5db7a9b8b9"><path d="M 31 68 L 34 68 L 34 71.652344 L 31 71.652344 Z M 31 68 " clip-rule="nonzero"/></clipPath><clipPath id="e7e9fc0c3a"><path d="M 40 68 L 43 68 L 43 71.652344 L 40 71.652344 Z M 40 68 " clip-rule="nonzero"/></clipPath><clipPath id="d09fa2987a"><path d="M 12.882812 2.707031 L 61.066406 2.707031 L 61.066406 47 L 12.882812 47 Z M 12.882812 2.707031 " clip-rule="nonzero"/></clipPath><clipPath id="096d85cbf1"><path d="M 35 67 L 39 67 L 39 71.652344 L 35 71.652344 Z M 35 67 " clip-rule="nonzero"/></clipPath></defs><g clip-path="url(#5db7a9b8b9)"><path fill="#000000" d="M 32.160156 68.417969 C 31.570312 68.417969 31.089844 68.902344 31.089844 69.496094 L 31.089844 70.574219 C 31.089844 71.167969 31.570312 71.652344 32.160156 71.652344 C 32.75 71.652344 33.230469 71.167969 33.230469 70.574219 L 33.230469 69.496094 C 33.230469 68.902344 32.75 68.417969 32.160156 68.417969 Z M 32.160156 68.417969 " fill-opacity="1" fill-rule="nonzero"/></g><g clip-path="url(#e7e9fc0c3a)"><path fill="#000000" d="M 41.628906 68.417969 C 41.039062 68.417969 40.558594 68.902344 40.558594 69.496094 L 40.558594 70.574219 C 40.558594 71.167969 41.039062 71.652344 41.628906 71.652344 C 42.21875 71.652344 42.699219 71.167969 42.699219 70.574219 L 42.699219 69.496094 C 42.699219 68.902344 42.21875 68.417969 41.628906 68.417969 Z M 41.628906 68.417969 " fill-opacity="1" fill-rule="nonzero"/></g><g clip-path="url(#d09fa2987a)"><path fill="#000000" d="M 13.8125 30.394531 L 19.054688 31.253906 C 19.480469 33.140625 20.230469 34.972656 21.246094 36.585938 L 18.144531 40.949219 C 17.824219 41.382812 17.878906 41.972656 18.25 42.351562 L 21.621094 45.742188 C 21.996094 46.121094 22.585938 46.175781 23.011719 45.851562 L 26.652344 43.210938 L 26.222656 40.949219 L 22.476562 43.644531 L 20.445312 41.488281 L 23.441406 37.289062 C 23.707031 36.910156 23.707031 36.425781 23.441406 36.046875 C 22.265625 34.21875 21.40625 32.222656 20.980469 30.125 C 20.871094 29.691406 20.550781 29.371094 20.125 29.261719 L 15.042969 28.453125 L 15.042969 25.492188 L 20.125 24.628906 C 20.550781 24.578125 20.925781 24.199219 20.980469 23.769531 C 21.40625 21.613281 22.210938 19.621094 23.441406 17.84375 C 23.707031 17.464844 23.707031 16.980469 23.441406 16.605469 L 20.445312 12.402344 L 22.53125 10.304688 L 26.703125 13.320312 C 27.078125 13.589844 27.558594 13.589844 27.933594 13.320312 C 29.753906 12.132812 31.734375 11.273438 33.820312 10.839844 C 34.246094 10.734375 34.621094 10.410156 34.675781 9.980469 L 35.476562 4.863281 L 38.417969 4.863281 L 39.277344 9.980469 C 39.328125 10.410156 39.703125 10.789062 40.132812 10.839844 C 42.269531 11.273438 44.25 12.082031 46.015625 13.320312 C 46.390625 13.589844 46.871094 13.589844 47.246094 13.320312 L 51.417969 10.304688 L 53.503906 12.402344 L 50.511719 16.605469 C 50.242188 16.980469 50.242188 17.464844 50.511719 17.84375 C 51.6875 19.675781 52.542969 21.667969 52.96875 23.769531 C 53.078125 24.199219 53.398438 24.523438 53.828125 24.628906 L 58.910156 25.492188 L 58.910156 28.453125 L 53.828125 29.316406 C 53.398438 29.371094 53.023438 29.746094 52.96875 30.179688 C 52.542969 32.332031 51.738281 34.324219 50.511719 36.101562 C 50.242188 36.480469 50.242188 36.964844 50.511719 37.339844 L 53.503906 41.542969 L 51.417969 43.589844 L 47.726562 40.949219 L 47.300781 43.320312 L 50.9375 45.90625 C 51.367188 46.226562 51.953125 46.175781 52.328125 45.796875 L 55.699219 42.40625 C 56.074219 42.027344 56.125 41.433594 55.804688 41.003906 L 52.703125 36.640625 C 53.71875 34.972656 54.46875 33.195312 54.898438 31.308594 L 60.140625 30.445312 C 60.675781 30.339844 61.046875 29.910156 61.046875 29.371094 L 61.046875 24.578125 C 61.046875 24.039062 60.675781 23.605469 60.140625 23.5 L 54.898438 22.636719 C 54.46875 20.753906 53.71875 18.921875 52.703125 17.304688 L 55.804688 12.941406 C 56.125 12.511719 56.074219 11.917969 55.699219 11.542969 L 52.328125 8.09375 C 51.953125 7.71875 51.367188 7.664062 50.9375 7.988281 L 46.605469 11.109375 C 44.945312 10.085938 43.179688 9.332031 41.308594 8.902344 L 40.453125 3.625 C 40.34375 3.085938 39.917969 2.707031 39.382812 2.707031 L 34.621094 2.707031 C 34.085938 2.707031 33.660156 3.085938 33.550781 3.625 L 32.695312 8.902344 C 30.824219 9.332031 29.003906 10.085938 27.398438 11.109375 L 23.066406 7.988281 C 22.585938 7.664062 21.996094 7.71875 21.621094 8.09375 L 18.25 11.488281 C 17.878906 11.863281 17.824219 12.457031 18.144531 12.886719 L 21.246094 17.25 C 20.230469 18.921875 19.480469 20.699219 19.054688 22.582031 L 13.8125 23.445312 C 13.277344 23.554688 12.902344 23.984375 12.902344 24.523438 L 12.902344 29.316406 C 12.902344 29.855469 13.277344 30.339844 13.8125 30.394531 Z M 13.8125 30.394531 " fill-opacity="1" fill-rule="nonzero"/></g><path fill="#000000" d="M 33.230469 64.59375 C 33.230469 64.003906 32.75 63.519531 32.160156 63.519531 C 31.570312 63.519531 31.089844 64.003906 31.089844 64.59375 L 31.089844 66.371094 C 31.089844 66.964844 31.570312 67.449219 32.160156 67.449219 C 32.75 67.449219 33.230469 66.964844 33.230469 66.371094 Z M 33.230469 64.59375 " fill-opacity="1" fill-rule="nonzero"/><path fill="#000000" d="M 33.230469 59.695312 C 33.230469 59.316406 33.015625 58.941406 32.695312 58.777344 L 32.054688 58.777344 C 31.894531 58.777344 31.785156 58.777344 31.679688 58.722656 C 31.304688 58.886719 31.089844 59.261719 31.089844 59.695312 L 31.089844 61.472656 C 31.089844 62.0625 31.570312 62.546875 32.160156 62.546875 C 32.75 62.546875 33.230469 62.0625 33.230469 61.472656 Z M 33.230469 59.695312 " fill-opacity="1" fill-rule="nonzero"/><path fill="#000000" d="M 42.699219 64.59375 C 42.699219 64.003906 42.21875 63.519531 41.628906 63.519531 C 41.039062 63.519531 40.558594 64.003906 40.558594 64.59375 L 40.558594 66.371094 C 40.558594 66.964844 41.039062 67.449219 41.628906 67.449219 C 42.21875 67.449219 42.699219 66.964844 42.699219 66.371094 Z M 42.699219 64.59375 " fill-opacity="1" fill-rule="nonzero"/><path fill="#000000" d="M 42.699219 59.695312 C 42.699219 59.261719 42.484375 58.941406 42.109375 58.722656 C 42.003906 58.722656 41.949219 58.722656 41.84375 58.722656 L 41.039062 58.722656 C 40.71875 58.886719 40.507812 59.261719 40.507812 59.640625 L 40.507812 61.417969 C 40.507812 62.011719 40.988281 62.496094 41.574219 62.496094 C 42.164062 62.496094 42.644531 62.011719 42.644531 61.417969 L 42.644531 59.695312 Z M 42.699219 59.695312 " fill-opacity="1" fill-rule="nonzero"/><path fill="#000000" d="M 38.046875 58.777344 L 35.90625 58.777344 L 35.90625 63.03125 C 35.90625 63.625 36.386719 64.109375 36.976562 64.109375 C 37.5625 64.109375 38.046875 63.625 38.046875 63.03125 Z M 38.046875 58.777344 " fill-opacity="1" fill-rule="nonzero"/><path fill="#000000" d="M 21.566406 56.515625 L 21.566406 60.339844 C 21.566406 60.71875 21.78125 61.039062 22.101562 61.253906 C 22.265625 61.363281 22.476562 61.417969 22.636719 61.417969 C 22.796875 61.417969 22.960938 61.363281 23.121094 61.308594 L 32.375 56.625 L 41.574219 56.625 L 50.832031 61.308594 C 50.992188 61.363281 51.152344 61.417969 51.3125 61.417969 C 51.527344 61.417969 51.6875 61.363281 51.847656 61.253906 C 52.167969 61.039062 52.382812 60.71875 52.382812 60.339844 L 52.382812 56.515625 C 52.382812 50.589844 49.386719 46.550781 44.679688 45.960938 L 45.960938 38.742188 C 46.550781 35.292969 46.605469 31.957031 46.015625 28.777344 C 45.480469 25.707031 44.410156 23.121094 42.859375 20.859375 L 39.328125 15.742188 C 38.792969 14.988281 37.9375 14.503906 36.976562 14.503906 C 36.066406 14.503906 35.15625 14.933594 34.621094 15.742188 L 31.089844 20.859375 C 29.539062 23.121094 28.523438 25.707031 27.933594 28.777344 C 27.347656 31.902344 27.398438 35.292969 27.988281 38.742188 L 29.273438 45.960938 C 24.5625 46.550781 21.566406 50.539062 21.566406 56.515625 Z M 41.46875 51.828125 L 40.988281 54.46875 L 32.964844 54.46875 L 32.480469 51.828125 Z M 50.242188 56.515625 L 50.242188 58.617188 L 43.128906 54.953125 L 43.769531 51.292969 L 44.359375 48.007812 C 48.636719 48.542969 50.242188 52.636719 50.242188 56.515625 Z M 36.386719 16.980469 C 36.601562 16.710938 36.867188 16.710938 36.976562 16.710938 C 37.082031 16.710938 37.351562 16.765625 37.5625 17.035156 L 39.917969 20.429688 L 34.03125 20.429688 Z M 30.074219 29.15625 C 30.554688 26.570312 31.359375 24.414062 32.589844 22.53125 L 41.46875 22.53125 C 42.699219 24.414062 43.5 26.570312 43.984375 29.15625 C 44.519531 32.0625 44.464844 35.132812 43.929688 38.363281 L 42.484375 46.496094 C 42.433594 46.550781 42.433594 46.660156 42.433594 46.714844 L 41.949219 49.621094 L 38.046875 49.621094 L 38.046875 43.535156 C 38.046875 42.941406 37.5625 42.457031 36.976562 42.457031 C 36.386719 42.457031 35.90625 42.941406 35.90625 43.535156 L 35.90625 49.675781 L 32.105469 49.675781 L 31.625 47.089844 L 31.625 46.714844 L 30.128906 38.363281 C 29.539062 35.132812 29.539062 32.0625 30.074219 29.15625 Z M 29.644531 48.058594 L 30.824219 54.953125 L 23.707031 58.5625 L 23.707031 56.460938 C 23.707031 52.636719 25.3125 48.542969 29.644531 48.058594 Z M 29.644531 48.058594 " fill-opacity="1" fill-rule="nonzero"/><path fill="#000000" d="M 36.976562 35.457031 C 39.4375 35.457031 41.414062 33.464844 41.414062 31.039062 C 41.414062 28.617188 39.4375 26.621094 36.976562 26.621094 C 34.515625 26.621094 32.535156 28.617188 32.535156 31.039062 C 32.535156 33.464844 34.566406 35.457031 36.976562 35.457031 Z M 36.976562 28.722656 C 38.207031 28.722656 39.277344 29.746094 39.277344 30.984375 C 39.277344 32.222656 38.257812 33.246094 36.976562 33.246094 C 35.691406 33.246094 34.675781 32.222656 34.675781 30.984375 C 34.675781 29.746094 35.746094 28.722656 36.976562 28.722656 Z M 36.976562 28.722656 " fill-opacity="1" fill-rule="nonzero"/><g clip-path="url(#096d85cbf1)"><path fill="#000000" d="M 36.976562 67.34375 C 36.386719 67.34375 35.90625 67.828125 35.90625 68.417969 L 35.90625 70.574219 C 35.90625 71.167969 36.386719 71.652344 36.976562 71.652344 C 37.5625 71.652344 38.046875 71.167969 38.046875 70.574219 L 38.046875 68.417969 C 38.046875 67.828125 37.5625 67.34375 36.976562 67.34375 Z M 36.976562 67.34375 " fill-opacity="1" fill-rule="nonzero"/></g></svg>